{"title":"Jack Reacher 2012 BRRiP XViD OPTiMUM","uid":8383360,"size":1484599296,"categoryP":"video","categoryS":"movies","magnet":"?xt=urn:btih:0056e5df3b986955153895a47ba04fec766dc4cd&amp;dn=Jack+Reacher+2012+BRRiP+XViD+OPTiMUM&amp;tr=udp%3A%2F%2Ftracker.openbittorrent.com%3A80&amp;tr=udp%3A%2F%2Fopen.demonii.com%3A1337&amp;tr=udp%3A%2F%2Ftracker.coppersurfer.tk%3A6969&amp;tr=udp%3A%2F%2Fexodus.desync.com%3A6969","seeders":1,"leechers":0,"uploader":"HeroMaster","files":-1,"time":1366224235,"description":"Jack Reacher 2012 BRRiP XViD OPTiMUM\n\n\nIMDB: http://www.imdb.com/title/tt0790724/\n\n\nFormat                                   : AVI\nFormat/Info                              : Audio Video Interleave\nFile size                                : 1.37 GiB\nDuration                                 : 2h 10mn\nOverall bit rate                         : 1 500 Kbps\nWriting application                      : VirtualDubMod 1.5.10.2 \nlibrary                                  : VirtualDubMod build 2540/release\n\nVideo\nID                                       : 0\nFormat                                   : MPEG-4 Visual\nFormat profile                           : Advanced Simple@L5\nFormat settings, BVOP                    : 2\nFormat settings, QPel                    : No\nFormat settings, GMC                     : No warppoints\nFormat settings, Matrix                  : Default (H.263)\nMuxing mode                              : Packed bitstream\nCodec ID                                 : XVID\nCodec ID/Hint                            : XviD\nDuration                                 : 2h 10mn\nBit rate                                 : 1 106 Kbps\nWidth                                    : 720 pixels\nHeight                                   : 304 pixels\nDisplay aspect ratio                     : 2.35:1\nFrame rate                               : 23.976 fps\nColor space                              : YUV\nChroma subsampling                       : 4:2:0\nBit depth                                : 8 bits\nScan type                                : Progressive\nCompression mode                         : Lossy\nBits/(Pixel*Frame)                       : 0.211\nStream size                              : 1.01 GiB (74%)\nWriting library                          : XviD 64\n\nAudio\nID                                       : 1\nFormat                                   : AC-3\nFormat/Info                              : Audio Coding 3\nMode extension                           : CM (complete main)\nFormat settings, Endianness              : Big\nCodec ID                                 : 2000\nDuration                                 : 2h 10mn\nBit rate mode                            : Constant\nBit rate                                 : 384 Kbps\nChannel(s)                               : 6 channels\nChannel positions                        : Front: L C R, Side: L R, LFE\nSampling rate                            : 48.0 KHz\nBit depth                                : 16 bits\nCompression mode                         : Lossy\nStream size                              : 358 MiB (26%)\nAlignment                                : Split accross interleaves\nInterleave, duration                     : 42 ms (1.00 video frame)\nInterleave, preload duration             : 500 ms\n\n\nSource Used \n\nJack Reacher 2012 720p BluRay X264-AMIABLE / Thanks\n\n\nPoster:\n\n &lt;a href=&quot;\nhttp://i.imgur.com/Umv8I1m.jpg&quot; rel=&quot;nofollow&quot; target=&quot;_NEW&quot;&gt;\nhttp://i.imgur.com/Umv8I1m.jpg&lt;/a&gt;\n\n\nScreenshots:\n\n &lt;a href=&quot;\nhttp://i.imgur.com/LadP4Pu.jpg&quot; rel=&quot;nofollow&quot; target=&quot;_NEW&quot;&gt;\nhttp://i.imgur.com/LadP4Pu.jpg&lt;/a&gt;\n\n\nSEED AND ENJOY!","torrent":{"xt":"urn:btih:0056e5df3b986955153895a47ba04fec766dc4cd","amp;dn":"Jack+Reacher+2012+BRRiP+XViD+OPTiMUM","amp;tr":["udp%3A%2F%2Ftracker.openbittorrent.com%3A80","udp%3A%2F%2Fopen.demonii.com%3A1337","udp%3A%2F%2Ftracker.coppersurfer.tk%3A6969","udp%3A%2F%2Fexodus.desync.com%3A6969"],"infoHash":"0056e5df3b986955153895a47ba04fec766dc4cd","infoHashBuffer":{"type":"Buffer","data":[0,86,229,223,59,152,105,85,21,56,149,164,123,160,79,236,118,109,196,205]},"announce":[],"urlList":[]}}